<?xml version="1.0" standalone="no"?>
<!DOCTYPE svg PUBLIC "-//W3C//DTD SVG 20010904//EN"
 "http://www.w3.org/TR/2001/REC-SVG-20010904/DTD/svg10.dtd">
<svg version="1.0" xmlns="http://www.w3.org/2000/svg"
 width="1000.000000pt" height="158.000000pt" viewBox="0 0 1000.000000 158.000000"
 preserveAspectRatio="xMidYMid meet">

<g transform="translate(0.000000,158.000000) scale(0.100000,-0.100000)"
fill="#000000" stroke="none">
<path d="M7002 1188 c-14 -17 32 -72 54 -64 17 7 8 30 -24 59 -15 14 -21 15
-30 5z"/>
<path d="M3397 1175 c-4 -9 5 -23 24 -36 24 -17 32 -19 45 -8 13 11 12 15 -13
35 -33 27 -49 30 -56 9z"/>
<path d="M6902 1178 c-9 -9 -7 -17 10 -35 12 -13 27 -23 34 -23 25 0 23 17 -4
43 -22 21 -31 24 -40 15z"/>
<path d="M8833 1138 c-39 -57 -113 -120 -172 -149 -28 -13 -51 -26 -51 -30 0
-3 11 -16 25 -29 l24 -23 36 22 c20 11 38 21 41 21 2 0 4 -13 4 -30 l0 -30
170 0 170 0 0 30 c0 35 -1 35 44 14 34 -17 35 -17 59 12 l25 29 -66 31 c-77
35 -172 108 -179 135 -3 11 -8 19 -12 19 -3 1 -25 5 -48 9 -41 8 -43 7 -70
-31z m120 -81 c23 -23 58 -55 77 -69 l35 -27 -153 -1 -153 0 68 68 c37 38 71
69 76 70 4 1 26 -17 50 -41z"/>
<path d="M920 1144 c-36 -13 -82 -23 -102 -24 -21 0 -38 -4 -38 -10 0 -20 23
-58 34 -55 6 2 26 6 44 9 32 5 32 5 32 -34 l0 -40 -60 0 -60 0 0 -35 0 -35 51
0 c48 0 50 -1 43 -22 -13 -44 -54 -118 -84 -151 -16 -19 -30 -37 -30 -41 0 -3
13 -12 29 -21 29 -15 30 -14 60 27 17 23 31 46 31 50 0 4 5 8 10 8 6 0 10 -40
10 -100 l0 -100 35 0 35 0 0 120 0 120 29 -32 28 -32 18 27 c17 27 17 27 -29
78 -25 28 -46 55 -46 60 0 5 23 9 50 9 l50 0 0 35 0 35 -50 0 -50 0 0 49 0 48
45 15 46 14 -21 27 c-25 31 -25 31 -110 1z"/>
<path d="M7280 1115 l0 -55 -50 0 c-49 0 -50 -1 -50 -30 0 -29 2 -30 45 -30
30 0 45 -4 45 -13 0 -28 -43 -138 -74 -189 l-32 -54 24 -18 c13 -10 25 -16 26
-14 2 1 17 26 35 53 l31 50 0 -122 0 -123 35 0 35 0 0 136 c0 135 0 136 19
113 l19 -24 20 25 c11 14 16 27 12 30 -29 18 -70 86 -70 116 0 32 2 34 35 34
32 0 35 2 35 30 0 28 -3 30 -36 30 l-36 0 4 55 3 55 -37 0 -38 0 0 -55z"/>
<path d="M7580 1115 c0 -48 -2 -55 -20 -55 -21 0 -26 16 -10 40 11 17 -4 30
-36 30 -17 0 -23 -8 -28 -34 -4 -18 -17 -54 -29 -79 l-23 -45 24 -12 c14 -6
26 -9 27 -8 1 2 8 13 14 26 9 16 21 22 46 22 34 0 35 -1 35 -40 l0 -40 -65 0
-65 0 0 -35 0 -35 50 0 c28 0 50 -4 50 -9 0 -19 -84 -133 -125 -169 l-44 -39
28 -21 29 -21 44 47 c24 26 56 63 71 82 l27 35 0 -92 0 -93 35 0 35 0 0 86 0
87 34 -45 c19 -24 46 -53 61 -62 27 -17 28 -17 48 3 l21 20 -49 43 c-44 39
-105 120 -105 140 0 4 29 8 65 8 l65 0 0 35 0 35 -70 0 -70 0 0 40 0 40 65 0
65 0 0 30 0 30 -66 0 -66 0 4 55 5 55 -39 0 -38 0 0 -55z"/>
<path d="M8196 1111 l7 -61 -152 0 -151 0 0 -35 0 -35 154 0 153 0 7 -49 c8
-63 48 -178 80 -233 31 -53 82 -103 118 -117 35 -13 72 14 89 66 11 33 10 37
-12 54 -24 18 -24 17 -37 -7 -42 -80 -130 50 -176 259 l-6 27 115 0 115 0 0
35 0 35 -116 0 -116 0 4 55 c3 49 1 55 -17 55 -11 0 -30 3 -42 6 -22 6 -23 5
-17 -55z"/>
<path d="M8352 1157 c-21 -24 -16 -36 25 -66 l43 -31 17 26 c16 25 16 27 -3
41 -43 33 -72 43 -82 30z"/>
<path d="M9400 1105 l0 -65 -40 0 c-39 0 -40 -1 -40 -35 l0 -35 81 0 81 0 -19
-29 c-25 -40 -80 -100 -128 -139 l-39 -32 21 -21 c22 -22 31 -21 71 7 l22 16
0 -101 0 -101 35 0 35 0 0 121 0 121 37 -32 36 -32 18 23 c18 24 18 24 -27 63
-44 37 -44 39 -29 63 9 13 27 45 40 70 31 57 21 73 -42 73 l-45 0 4 60 c3 52
1 60 -17 64 -51 14 -55 10 -55 -59z"/>
<path d="M9690 1070 l0 -100 -50 0 -50 0 0 -35 0 -35 50 0 50 0 0 -125 0 -125
-80 0 -80 0 0 -35 0 -35 190 0 190 0 0 35 0 35 -70 0 -70 0 0 125 0 125 65 0
65 0 0 35 0 35 -66 0 -65 0 3 94 3 95 -29 5 c-57 12 -56 14 -56 -94z"/>
<path d="M3051 1134 c-14 -33 -14 -44 2 -44 8 0 36 -11 62 -25 51 -25 51 -25
76 17 8 14 2 21 -33 39 -75 38 -94 40 -107 13z"/>
<path d="M5450 1014 c0 -166 -14 -226 -66 -284 -20 -21 -57 -50 -84 -63 l-49
-24 30 -29 30 -28 36 19 c61 33 129 109 154 172 19 48 24 82 27 203 2 80 8
150 13 157 7 8 -4 12 -41 15 l-50 3 0 -141z"/>
<path d="M6686 1098 c-17 -36 -56 -90 -97 -133 l-68 -72 29 -21 c16 -12 31
-22 33 -22 2 0 33 34 68 75 l64 75 92 0 c74 0 93 -3 93 -14 0 -27 -70 -149
-117 -203 -25 -30 -77 -76 -114 -101 -37 -26 -67 -51 -66 -55 1 -5 15 -16 29
-25 37 -22 62 -8 164 93 72 72 88 95 142 205 l62 124 -22 23 c-20 21 -30 23
-120 23 -54 0 -98 2 -98 5 0 3 7 17 16 30 15 23 15 24 -21 40 -21 8 -38 15
-39 14 0 0 -14 -27 -30 -61z"/>
<path d="M368 963 c-3 -215 -11 -240 -90 -308 l-43 -36 25 -19 c14 -11 28 -20
32 -20 4 0 29 22 57 49 41 40 53 61 71 120 l22 71 69 0 70 0 -3 -82 -3 -83
-36 -3 -37 -3 11 -35 c10 -32 13 -34 53 -34 34 0 47 5 63 26 20 25 21 39 21
285 l0 259 -139 0 -139 0 -4 -187z m212 92 l0 -35 -70 0 -70 0 0 35 0 35 70 0
70 0 0 -35z m0 -140 l0 -35 -70 0 -70 0 0 35 0 35 70 0 70 0 0 -35z"/>
<path d="M5160 985 l0 -165 40 0 39 0 3 160 c3 173 4 170 -53 170 l-29 0 0
-165z"/>
<path d="M70 925 l0 -215 35 0 c32 0 35 2 35 30 l0 30 90 0 90 0 0 185 0 185
-125 0 -125 0 0 -215z m180 105 l0 -40 -55 0 -55 0 0 40 0 40 55 0 55 0 0 -40z
m0 -155 l0 -45 -55 0 -55 0 0 45 0 45 55 0 55 0 0 -45z"/>
<path d="M2276 1099 c-10 -17 -16 -31 -14 -33 1 -1 32 -19 67 -40 l64 -39 18
24 c10 13 19 27 19 31 0 5 -94 65 -131 84 -3 2 -13 -11 -23 -27z"/>
<path d="M3331 1117 c-8 -10 -4 -19 19 -36 17 -12 35 -19 40 -16 17 11 11 32
-15 49 -29 19 -30 19 -44 3z"/>
<path d="M5836 1099 c-10 -17 -16 -31 -14 -33 1 -1 32 -19 67 -40 l64 -39 18
24 c10 13 19 27 19 31 0 5 -94 65 -131 84 -3 2 -13 -11 -23 -27z"/>
<path d="M4855 1110 c-4 -6 -102 -10 -251 -10 l-244 0 0 -35 0 -35 225 0 226
0 -12 -22 c-7 -12 -35 -46 -62 -76 l-51 -53 27 -26 c26 -27 26 -27 47 -8 12
11 53 61 92 112 l70 93 -30 35 c-17 19 -34 30 -37 25z"/>
<path d="M1080 845 l0 -255 40 0 c38 0 40 2 40 30 l0 30 65 0 c58 0 65 -2 65
-20 0 -17 7 -20 40 -20 l40 0 0 245 0 245 -145 0 -145 0 0 -255z m210 30 l0
-155 -65 0 -65 0 0 155 0 155 65 0 65 0 0 -155z"/>
<path d="M1580 1050 l0 -40 80 0 80 0 0 -140 0 -140 -105 0 -105 0 0 -40 0
-40 255 0 255 0 0 40 0 40 -105 0 -105 0 0 140 0 140 80 0 80 0 0 40 0 40
-205 0 -205 0 0 -40z"/>
<path d="M3730 1040 l0 -40 190 0 190 0 0 40 0 40 -190 0 -190 0 0 -40z"/>
<path d="M2647 935 c-100 -108 -195 -175 -299 -212 -40 -15 -75 -28 -77 -29
-6 -4 42 -84 51 -84 4 0 8 4 8 9 0 4 23 18 51 30 113 46 288 183 363 283 28
38 28 38 10 67 l-19 30 -88 -94z"/>
<path d="M6207 935 c-100 -108 -195 -175 -299 -212 -40 -15 -75 -28 -77 -29
-6 -4 42 -84 51 -84 4 0 8 4 8 9 0 4 23 18 51 30 113 46 288 183 363 283 28
38 28 38 10 67 l-19 30 -88 -94z"/>
<path d="M4590 978 c0 -110 -39 -203 -117 -281 l-56 -55 32 -16 c28 -15 33
-15 54 -1 77 50 147 194 160 328 4 39 2 47 -12 47 -9 0 -26 3 -38 6 -21 6 -23
3 -23 -28z"/>
<path d="M2974 969 c-8 -17 -14 -32 -12 -32 2 -1 31 -16 66 -33 l62 -32 15 21
c23 33 18 45 -25 67 -83 42 -88 43 -106 9z"/>
<path d="M3410 984 c0 -5 -26 -42 -59 -80 -66 -79 -173 -164 -273 -219 -38
-20 -68 -39 -68 -41 0 -2 7 -19 16 -37 l17 -34 81 47 c44 27 114 75 155 107
74 58 181 176 181 199 0 16 -49 73 -50 58z"/>
<path d="M7910 855 l0 -35 55 0 55 0 0 -79 0 -78 -56 -6 c-31 -3 -58 -7 -59
-9 -2 -2 -1 -22 2 -45 5 -40 6 -41 32 -27 14 7 83 23 154 35 l127 22 0 29 0
29 -60 -7 -60 -7 0 72 0 71 45 0 c45 0 45 0 45 35 l0 35 -140 0 -140 0 0 -35z"/>
<path d="M8650 815 l0 -35 81 0 80 0 -32 -60 -32 -60 -50 0 -49 0 7 -37 c4
-21 8 -40 10 -42 2 -2 89 6 193 18 104 11 196 21 205 21 8 0 23 -13 34 -29
l18 -29 29 23 29 23 -42 50 c-45 55 -107 112 -120 112 -4 0 -16 -9 -26 -20
-18 -20 -18 -21 5 -45 l23 -24 -24 -5 c-42 -8 -160 -14 -157 -7 2 3 17 30 33
59 l30 52 133 0 132 0 0 35 0 35 -255 0 -255 0 0 -35z"/>
<path d="M3650 710 l0 -40 265 0 265 0 0 40 0 40 -265 0 -265 0 0 -40z"/>
</g>
</svg>
